<?xml version="1.0" standalone="no"?><!DOCTYPE svg PUBLIC "-//W3C//DTD SVG 1.1//EN" "http://www.w3.org/Graphics/SVG/1.1/DTD/svg11.dtd"><svg t="1590029692799" class="icon" viewBox="0 0 1114 1024" version="1.1" xmlns="http://www.w3.org/2000/svg" p-id="2047" width="26.109375" height="24" xmlns:xlink="http://www.w3.org/1999/xlink"><defs><style type="text/css"></style></defs><path d="M979.411113 640.099408C961.491314 691.051489 913.64161 725.314938 860.22896 725.314938L358.538151 725.314938C298.343161 725.314938 246.188036 681.841504 234.494629 621.990066L149.4588 185.728321 121.329662 54.87547 27.127044 54.87547C12.12684 54.87547 0 42.625963 0 27.463538 0 12.250709 12.136087 3.1e-05 27.127044 3.1e-05L143.151502 3.1e-05C147.441898 0.670529 149.217235 1.019846 151.022622 1.595396 152.652325 2.124056 154.137551 2.664444 155.604284 3.490847 157.194689 4.316075 158.522724 5.278453 159.913172 6.395561 161.310556 7.509152 162.496425 8.623914 163.64184 9.981324 164.687856 11.290673 165.597485 12.697315 166.398466 14.197733 167.303471 15.834125 168.077869 17.49045 168.640752 19.278056 168.885786 20.103284 169.464851 20.742135 169.652093 21.602531L197.783543 152.546816 1023.402692 152.546816C1052.481914 152.546816 1079.860927 166.887526 1096.604102 190.961027 1113.453613 215.041563 1117.594909 246.002924 1107.896445 273.816919L979.411113 640.099408ZM1052.353616 222.638601C1045.653344 212.996074 1035.113441 207.425772 1023.424654 207.425772L208.93834 207.425772 287.658781 611.339447C294.342874 645.54663 324.160663 670.356271 358.548551 670.356271L860.23936 670.356271C890.766821 670.356271 918.137745 650.772302 928.365572 621.671228L1056.863619 255.369986C1060.741387 244.23993 1059.155607 232.309266 1052.362863 222.635088L1052.362863 222.635088 1052.353616 222.638601ZM338.854574 784.88153C399.140873 784.88153 448.151018 834.511369 448.151018 895.55259 448.151018 956.600844 399.131626 1006.264676 338.854574 1006.264676 278.614506 1006.264676 229.612455 956.596155 229.612455 895.55259 229.612455 834.521921 278.607569 784.88153 338.854574 784.88153L338.854574 784.88153 338.854574 784.88153ZM338.854574 951.371653C369.22831 951.371653 393.933913 926.338117 393.933913 895.57369 393.933913 864.830362 369.222531 839.830822 338.854574 839.830822 308.517821 839.830822 283.836492 864.838567 283.836492 895.57369 283.836492 926.356873 308.524758 951.371653 338.854574 951.371653L338.854574 951.371653 338.854574 951.371653ZM821.767965 784.88153C882.028838 784.88153 931.026267 834.511369 931.026267 895.55259 931.026267 956.600844 882.031149 1006.264676 821.767965 1006.264676 761.54986 1006.264676 712.546651 956.596155 712.546651 895.55259 712.546651 834.521921 761.556792 784.88153 821.767965 784.88153L821.767965 784.88153 821.767965 784.88153ZM821.767965 951.371653C852.150949 951.371653 876.85193 926.338117 876.85193 895.57369 876.85193 864.830362 852.140544 839.830822 821.767965 839.830822 791.394228 839.830822 766.716363 864.838567 766.716363 895.57369 766.714052 926.356873 791.390765 951.371653 821.767965 951.371653L821.767965 951.371653 821.767965 951.371653Z" p-id="2048" fill="#fc7946"></path></svg>